 http://www.imdb.com/title/tt0110322/

Source: Legends.of.the.Fall.1994.Bluray.720p.2Audio.x264-CHD Thanks!

Subs: Albanian, Arabic, Brazilian, Bulgarian, Chinese, Croatian, Danish, Dutch, English, Finnish, Hungarian, Indonesian, Norwegian, Portuguese, Romanian, Servian, Spanish, Turkish and Vietnamese.

Sample and Screens included.

General
Complete name                            : Legens of The Fall-720p MP4 AAC x264 BRRip 1994-CC.mp4
Format                                   : MPEG-4
Format profile                           : Base Media
Codec ID                                 : isom
File size                                : 3.08 GiB
Duration                                 : 2h 12mn
Overall bit rate mode                    : Variable
Overall bit rate                         : 3 316 Kbps
Encoded date                             : UTC 2013-02-05 19:12:36

Video
ID                                       : 1
Format                                   : AVC
Format/Info                              : Advanced Video Codec
Format profile                           : High@L4.1
Format settings, CABAC                   : Yes
Format settings, ReFrames                : 5 frames
Codec ID                                 : avc1
Codec ID/Info                            : Advanced Video Coding
Duration                                 : 2h 12mn
Bit rate                                 : 2 990 Kbps
Maximum bit rate                         : 18.5 Mbps
Width                                    : 1 280 pixels
Height                                   : 694 pixels
Display aspect ratio                     : 1.85:1
Frame rate mode                          : Variable
Frame rate                               : 23.976 fps
Minimum frame rate                       : 15.873 fps
Maximum frame rate                       : 24.390 fps
Color space                              : YUV
Chroma subsampling                       : 4:2:0
Bit depth                                : 8 bits
Scan type                                : Progressive
Bits/(Pixel*Frame)                       : 0.140
Stream size                              : 2.72 GiB (88%)
Writing library                          : x264 core 112

Audio
ID                                       : 2
Format                                   : AAC
Format/Info                              : Advanced Audio Codec
Format profile                           : LC
Codec ID                                 : 40
Duration                                 : 2h 12mn
Bit rate mode                            : Variable
Bit rate                                 : 384 Kbps
Maximum bit rate                         : 585 Kbps
Channel(s)                               : 6 channels
Channel positions                        : Front: L C R, Side: L R, LFE
Sampling rate                            : 48.0 KHz
Compression mode                         : Lossy
Delay relative to video                  : 83ms
Stream size                              : 365 MiB (12%)
Language                                 : English

Enjoy...

Requested by Danny66

Coming soon: Apocalypse Hitler, Cruel Intentions, Mortal Kombat and more...